# xmcd CD database file
#
# Track frame offsets:
#	182
#	13625
#	26645
#	38487
#	53275
#	61587
#	72080
#	82250
#	93732
#	107077
#	119062
#	135520
#	146585
#	157770
#	169452
#
# Disc length: 2429 seconds
#
# Revision: 3
# Processed by: cddbd v1.5.2PL0 Copyright (c) Steve Scherf et al.
# Submitted via: CDex 1.50
#
DISCID=c2097b0f
DTITLE=Gene Pitney - Greatest Hits
DYEAR=1900
DGENRE=Country
TTITLE0=24 Hous From Tulsa
TTITLE1=Town Without Pity
TTITLE2=Backstage
TTITLE3=Looking Through The Eyes Of LOve
TTITLE4=I Wanna Love My Life Away
TTITLE5=Mecca
TTITLE6=I'm Gonna Be Strong
TTITLE7=It Hurts To Be In Love
TTITLE8=The Man Who Shot Liberty Valance
TTITLE9=Every Breath I Take
TTITLE10=Something's Gotten Hold Of My Heart
TTITLE11=True Love Never Runs Smooth
TTITLE12=I Must Be Seeing Things
TTITLE13=Princess In Rags
TTITLE14=Only Love Can Break A Heart
EXTD=
EXTT0=
EXTT1=
EXTT2=
EXTT3=
EXTT4=
EXTT5=
EXTT6=
EXTT7=
EXTT8=
EXTT9=
EXTT10=
EXTT11=
EXTT12=
EXTT13=
EXTT14=
PLAYORDER=
